HIERARCHY
ROOT Hips
{
	OFFSET -381.209564 -574.901306 88.753189
	CHANNELS 6 Xposition Yposition Zposition Zrotation Yrotation Xrotation
	JOINT Spine
	{
		OFFSET 0.000000 2.080078 8.814247
		CHANNELS 6 Xposition Yposition Zposition Zrotation Yrotation Xrotation
		JOINT Spine1
		{
			OFFSET 0.000000 0.000000 8.844139
			CHANNELS 6 Xposition Yposition Zposition Zrotation Yrotation Xrotation
			JOINT Spine2
			{
				OFFSET 0.000000 0.000000 11.682266
				CHANNELS 6 Xposition Yposition Zposition Zrotation Yrotation Xrotation
				JOINT Spine3
				{
					OFFSET 0.000000 0.000000 11.746704
					CHANNELS 6 Xposition Yposition Zposition Zrotation Yrotation Xrotation
					JOINT Neck
					{
						OFFSET 0.000000 0.000000 17.658264
						CHANNELS 6 Xposition Yposition Zposition Zrotation Yrotation Xrotation
						JOINT Neck1
						{
							OFFSET 0.000000 0.000000 5.101517
							CHANNELS 6 Xposition Yposition Zposition Zrotation Yrotation Xrotation
							JOINT Head
							{
								OFFSET 0.000000 0.000000 5.101517
								CHANNELS 6 Xposition Yposition Zposition Zrotation Yrotation Xrotation
								JOINT HeadEnd
								{
									OFFSET 0.000000 0.000000 11.655090
									CHANNELS 6 Xposition Yposition Zposition Zrotation Yrotation Xrotation
									End Site
									{
										OFFSET 0.000000 0.000000 0.100006
									}
								}
							}
						}
					}
					JOINT RightShoulder
					{
						OFFSET -2.625397 0.000000 11.175217
						CHANNELS 6 Xposition Yposition Zposition Zrotation Yrotation Xrotation
						JOINT RightArm
						{
							OFFSET 0.000000 0.000000 10.434723
							CHANNELS 6 Xposition Yposition Zposition Zrotation Yrotation Xrotation
							JOINT RightForeArm
							{
								OFFSET 0.000000 0.000000 29.628418
								CHANNELS 6 Xposition Yposition Zposition Zrotation Yrotation Xrotation
								JOINT RightHand
								{
									OFFSET 0.000000 0.000000 22.857605
									CHANNELS 6 Xposition Yposition Zposition Zrotation Yrotation Xrotation
									JOINT RightHandThumb1
									{
										OFFSET -2.867310 -2.944275 3.959564
										CHANNELS 6 Xposition Yposition Zposition Zrotation Yrotation Xrotation
										JOINT RightHandThumb2
										{
											OFFSET 0.000000 0.000000 3.350403
											CHANNELS 6 Xposition Yposition Zposition Zrotation Yrotation Xrotation
											JOINT RightHandThumb3
											{
												OFFSET 0.000000 0.000000 3.756516
												CHANNELS 6 Xposition Yposition Zposition Zrotation Yrotation Xrotation
												JOINT RightHandThumb4
												{
													OFFSET 0.000000 0.000000 3.147339
													CHANNELS 6 Xposition Yposition Zposition Zrotation Yrotation Xrotation
													End Site
													{
														OFFSET 0.000000 0.000000 0.100006
													}
												}
											}
										}
									}
									JOINT RightHandIndex1
									{
										OFFSET -0.086761 -2.345276 10.030899
										CHANNELS 6 Xposition Yposition Zposition Zrotation Yrotation Xrotation
										JOINT RightHandIndex2
										{
											OFFSET 0.000000 0.000000 4.061096
											CHANNELS 6 Xposition Yposition Zposition Zrotation Yrotation Xrotation
											JOINT RightHandIndex3
											{
												OFFSET 0.000000 0.000000 3.248871
												CHANNELS 6 Xposition Yposition Zposition Zrotation Yrotation Xrotation
												JOINT RightHandIndex4
												{
													OFFSET 0.000000 0.000000 2.639709
													CHANNELS 6 Xposition Yposition Zposition Zrotation Yrotation Xrotation
													End Site
													{
														OFFSET 0.000000 0.000000 0.100006
													}
												}
											}
										}
									}
									JOINT RightHandMiddle1
									{
										OFFSET 0.104095 -0.006775 9.502945
										CHANNELS 6 Xposition Yposition Zposition Zrotation Yrotation Xrotation
										JOINT RightHandMiddle2
										{
											OFFSET 0.000000 0.000000 4.568726
											CHANNELS 6 Xposition Yposition Zposition Zrotation Yrotation Xrotation
											JOINT RightHandMiddle3
											{
												OFFSET 0.000000 0.000000 3.654984
												CHANNELS 6 Xposition Yposition Zposition Zrotation Yrotation Xrotation
												JOINT RightHandMiddle4
												{
													OFFSET 0.000000 0.000000 2.741241
													CHANNELS 6 Xposition Yposition Zposition Zrotation Yrotation Xrotation
													End Site
													{
														OFFSET 0.000000 0.000000 0.100006
													}
												}
											}
										}
									}
									JOINT RightHandRing1
									{
										OFFSET 0.086761 2.267456 8.921707
										CHANNELS 6 Xposition Yposition Zposition Zrotation Yrotation Xrotation
										JOINT RightHandRing2
										{
											OFFSET 0.000000 0.000000 4.061096
											CHANNELS 6 Xposition Yposition Zposition Zrotation Yrotation Xrotation
											JOINT RightHandRing3
											{
												OFFSET 0.000000 0.000000 3.654984
												CHANNELS 6 Xposition Yposition Zposition Zrotation Yrotation Xrotation
												JOINT RightHandRing4
												{
													OFFSET 0.000000 0.000000 2.741241
													CHANNELS 6 Xposition Yposition Zposition Zrotation Yrotation Xrotation
													End Site
													{
														OFFSET 0.000000 0.000000 0.100006
													}
												}
											}
										}
									}
									JOINT RightHandPinky1
									{
										OFFSET -0.173492 4.467224 7.976990
										CHANNELS 6 Xposition Yposition Zposition Zrotation Yrotation Xrotation
										JOINT RightHandPinky2
										{
											OFFSET 0.000000 0.000000 3.350403
											CHANNELS 6 Xposition Yposition Zposition Zrotation Yrotation Xrotation
											JOINT RightHandPinky3
											{
												OFFSET 0.000000 0.000000 2.842758
												CHANNELS 6 Xposition Yposition Zposition Zrotation Yrotation Xrotation
												JOINT RightHandPinky4
												{
													OFFSET 0.000000 0.000000 2.639709
													CHANNELS 6 Xposition Yposition Zposition Zrotation Yrotation Xrotation
													End Site
													{
														OFFSET 0.000000 0.000000 0.100006
													}
												}
											}
										}
									}
									JOINT RightForeArmEnd
									{
										OFFSET 0.000000 0.000000 0.000000
										CHANNELS 6 Xposition Yposition Zposition Zrotation Yrotation Xrotation
										End Site
										{
											OFFSET 0.000000 0.000000 0.100006
										}
									}
								}
								JOINT RightArmEnd
								{
									OFFSET 0.000000 0.000000 0.000000
									CHANNELS 6 Xposition Yposition Zposition Zrotation Yrotation Xrotation
									End Site
									{
										OFFSET 0.000000 0.000000 0.100006
									}
								}
							}
						}
					}
					JOINT LeftShoulder
					{
						OFFSET 2.625397 0.000000 11.175217
						CHANNELS 6 Xposition Yposition Zposition Zrotation Yrotation Xrotation
						JOINT LeftArm
						{
							OFFSET 0.000000 0.000000 10.813629
							CHANNELS 6 Xposition Yposition Zposition Zrotation Yrotation Xrotation
							JOINT LeftForeArm
							{
								OFFSET 0.000000 0.000000 28.724777
								CHANNELS 6 Xposition Yposition Zposition Zrotation Yrotation Xrotation
								JOINT LeftHand
								{
									OFFSET 0.644379 0.328857 25.716171
									CHANNELS 6 Xposition Yposition Zposition Zrotation Yrotation Xrotation
									JOINT LeftHandThumb1
									{
										OFFSET 2.867310 -2.944275 3.959564
										CHANNELS 6 Xposition Yposition Zposition Zrotation Yrotation Xrotation
										JOINT LeftHandThumb2
										{
											OFFSET 0.000000 0.000000 3.350403
											CHANNELS 6 Xposition Yposition Zposition Zrotation Yrotation Xrotation
											JOINT LeftHandThumb3
											{
												OFFSET 0.000000 0.000000 3.756516
												CHANNELS 6 Xposition Yposition Zposition Zrotation Yrotation Xrotation
												JOINT LeftHandThumb4
												{
													OFFSET 0.000000 0.000000 3.100006
													CHANNELS 6 Xposition Yposition Zposition Zrotation Yrotation Xrotation
													End Site
													{
														OFFSET 0.000000 0.000000 0.100006
													}
												}
											}
										}
									}
									JOINT LeftHandIndex1
									{
										OFFSET 0.086761 -2.345276 10.030899
										CHANNELS 6 Xposition Yposition Zposition Zrotation Yrotation Xrotation
										JOINT LeftHandIndex2
										{
											OFFSET 0.000000 0.000000 4.061096
											CHANNELS 6 Xposition Yposition Zposition Zrotation Yrotation Xrotation
											JOINT LeftHandIndex3
											{
												OFFSET 0.000000 0.000000 3.248871
												CHANNELS 6 Xposition Yposition Zposition Zrotation Yrotation Xrotation
												JOINT LeftHandIndex4
												{
													OFFSET 0.000000 0.000000 2.639709
													CHANNELS 6 Xposition Yposition Zposition Zrotation Yrotation Xrotation
													End Site
													{
														OFFSET 0.000000 0.000000 0.100006
													}
												}
											}
										}
									}
									JOINT LeftHandMiddle1
									{
										OFFSET -0.104095 -0.006775 9.502945
										CHANNELS 6 Xposition Yposition Zposition Zrotation Yrotation Xrotation
										JOINT LeftHandMiddle2
										{
											OFFSET 0.000000 0.000000 4.568726
											CHANNELS 6 Xposition Yposition Zposition Zrotation Yrotation Xrotation
											JOINT LeftHandMiddle3
											{
												OFFSET 0.000000 0.000000 3.654984
												CHANNELS 6 Xposition Yposition Zposition Zrotation Yrotation Xrotation
												JOINT LeftHandMiddle4
												{
													OFFSET 0.000000 0.000000 2.741241
													CHANNELS 6 Xposition Yposition Zposition Zrotation Yrotation Xrotation
													End Site
													{
														OFFSET 0.000000 0.000000 0.100006
													}
												}
											}
										}
									}
									JOINT LeftHandRing1
									{
										OFFSET -0.086761 2.267456 8.921707
										CHANNELS 6 Xposition Yposition Zposition Zrotation Yrotation Xrotation
										JOINT LeftHandRing2
										{
											OFFSET 0.000000 0.000000 4.061096
											CHANNELS 6 Xposition Yposition Zposition Zrotation Yrotation Xrotation
											JOINT LeftHandRing3
											{
												OFFSET 0.000000 0.000000 3.654984
												CHANNELS 6 Xposition Yposition Zposition Zrotation Yrotation Xrotation
												JOINT LeftHandRing4
												{
													OFFSET 0.000000 0.000000 2.741241
													CHANNELS 6 Xposition Yposition Zposition Zrotation Yrotation Xrotation
													End Site
													{
														OFFSET 0.000000 0.000000 0.100006
													}
												}
											}
										}
									}
									JOINT LeftHandPinky1
									{
										OFFSET 0.173492 4.467224 7.976990
										CHANNELS 6 Xposition Yposition Zposition Zrotation Yrotation Xrotation
										JOINT LeftHandPinky2
										{
											OFFSET 0.000000 0.000000 3.350403
											CHANNELS 6 Xposition Yposition Zposition Zrotation Yrotation Xrotation
											JOINT LeftHandPinky3
											{
												OFFSET 0.000000 0.000000 2.842758
												CHANNELS 6 Xposition Yposition Zposition Zrotation Yrotation Xrotation
												JOINT LeftHandPinky4
												{
													OFFSET 0.000000 0.000000 2.639709
													CHANNELS 6 Xposition Yposition Zposition Zrotation Yrotation Xrotation
													End Site
													{
														OFFSET 0.000000 0.000000 0.100006
													}
												}
											}
										}
									}
									JOINT LeftForeArmEnd
									{
										OFFSET 0.000000 0.000000 0.000000
										CHANNELS 6 Xposition Yposition Zposition Zrotation Yrotation Xrotation
										End Site
										{
											OFFSET 0.000000 0.000000 0.100006
										}
									}
								}
								JOINT LeftArmEnd
								{
									OFFSET 0.000000 0.000000 0.000000
									CHANNELS 6 Xposition Yposition Zposition Zrotation Yrotation Xrotation
									End Site
									{
										OFFSET 0.000000 0.000000 0.100006
									}
								}
							}
						}
					}
				}
			}
		}
	}
	JOINT RightUpLeg
	{
		OFFSET -11.289948 0.000000 0.000000
		CHANNELS 6 Xposition Yposition Zposition Zrotation Yrotation Xrotation
		JOINT RightLeg
		{
			OFFSET 0.000000 0.000000 -38.200329
			CHANNELS 6 Xposition Yposition Zposition Zrotation Yrotation Xrotation
			JOINT RightFoot
			{
				OFFSET 0.000000 0.000000 -39.900856
				CHANNELS 6 Xposition Yposition Zposition Zrotation Yrotation Xrotation
				JOINT RightToeBase
				{
					OFFSET 0.000000 -15.261658 0.000001
					CHANNELS 6 Xposition Yposition Zposition Zrotation Yrotation Xrotation
					JOINT RightToeBaseEnd
					{
						OFFSET 0.000000 -7.370728 0.000000
						CHANNELS 6 Xposition Yposition Zposition Zrotation Yrotation Xrotation
						End Site
						{
							OFFSET 0.000000 0.000000 0.100000
						}
					}
				}
				JOINT RightLegEnd
				{
					OFFSET 0.000000 0.000000 0.000000
					CHANNELS 6 Xposition Yposition Zposition Zrotation Yrotation Xrotation
					End Site
					{
						OFFSET 0.000000 0.000000 0.100000
					}
				}
			}
			JOINT RightUpLegEnd
			{
				OFFSET 0.000000 0.000000 0.000000
				CHANNELS 6 Xposition Yposition Zposition Zrotation Yrotation Xrotation
				End Site
				{
					OFFSET 0.000000 0.000000 0.099998
				}
			}
		}
	}
	JOINT LeftUpLeg
	{
		OFFSET 11.315674 0.000000 0.000000
		CHANNELS 6 Xposition Yposition Zposition Zrotation Yrotation Xrotation
		JOINT LeftLeg
		{
			OFFSET 0.000000 0.000000 -38.200329
			CHANNELS 6 Xposition Yposition Zposition Zrotation Yrotation Xrotation
			JOINT LeftFoot
			{
				OFFSET 0.000000 0.000000 -39.900856
				CHANNELS 6 Xposition Yposition Zposition Zrotation Yrotation Xrotation
				JOINT LeftToeBase
				{
					OFFSET 0.000000 -15.261658 0.000001
					CHANNELS 6 Xposition Yposition Zposition Zrotation Yrotation Xrotation
					JOINT LeftToeBaseEnd
					{
						OFFSET 0.000000 -7.539978 0.000000
						CHANNELS 6 Xposition Yposition Zposition Zrotation Yrotation Xrotation
						End Site
						{
							OFFSET 0.000000 0.000000 0.100000
						}
					}
				}
				JOINT LeftLegEnd
				{
					OFFSET 0.000000 0.000000 0.000000
					CHANNELS 6 Xposition Yposition Zposition Zrotation Yrotation Xrotation
					End Site
					{
						OFFSET 0.000000 0.000000 0.100000
					}
				}
			}
			JOINT LeftUpLegEnd
			{
				OFFSET 0.000000 0.000000 0.000000
				CHANNELS 6 Xposition Yposition Zposition Zrotation Yrotation Xrotation
				End Site
				{
					OFFSET 0.000000 0.000000 0.099998
				}
			}
		}
	}
}
MOTION
Frames: 2
Frame Time: 0.016667
9.998291 -2.359253 81.857620 -2.031094 7.263139 -15.855446 -0.000010 2.080119 8.814270 0.597926 -0.569804 18.089809 -0.000008 -0.000017 8.844138 0.068019 0.834770 11.464074 0.000005 -0.000008 11.682286 3.219954 1.326478 13.567176 0.000005 0.000012 11.746696 1.326553 0.758824 8.213416 0.000006 0.000026 17.658268 -2.729570 -2.836988 -2.689246 -0.000000 0.000019 5.101497 -3.454679 0.112312 -6.816258 -0.000011 0.000003 5.101521 -0.363020 -0.072218 -11.649801 0.000000 -0.000002 11.655088 -0.000000 0.000000 -0.000001 -2.625389 0.000053 11.175236 20.871374 -76.352868 1.436952 0.000000 0.000061 10.434723 -60.152417 -41.308964 78.231286 0.000004 -0.000076 29.628443 16.925047 0.860823 36.203015 0.000034 -0.000086 22.857622 -13.828969 4.024884 -6.074316 -2.867306 -2.944290 3.959625 31.570340 -17.795554 50.709018 -0.000008 0.000008 3.350410 -13.848226 8.875898 -24.835005 0.000000 -0.000038 3.756527 -9.200054 6.815931 -16.986807 0.000007 -0.000020 3.147350 0.000004 -0.000001 -0.000002 -0.086754 -2.345326 10.030884 -12.376833 -18.214639 5.020510 -0.000004 0.000024 4.061087 0.290063 -13.202560 1.887423 -0.000006 -0.000041 3.248869 -0.210476 -13.202879 1.887535 -0.000004 -0.000002 2.639718 0.000000 -0.000000 0.000000 0.104046 -0.006810 9.502947 -6.675783 -16.568977 1.991407 -0.000041 -0.000116 4.568726 0.432909 -11.829778 0.617446 -0.000051 -0.000071 3.654974 -0.073017 -11.830064 0.626479 -0.000035 -0.000063 2.741222 0.000000 -0.000003 0.000000 0.086775 2.267456 8.921709 1.885403 -15.387901 -0.650753 -0.000024 0.000021 4.061088 -0.928125 -10.923010 -0.677685 0.000004 -0.000004 3.654988 0.071078 -10.922996 -0.677516 -0.000005 0.000005 2.741254 -0.000001 -0.000002 0.000000 -0.173477 4.467154 7.977013 10.981762 -12.611051 -3.474164 -0.000042 0.000019 3.350384 -1.856700 -9.116276 -1.787551 -0.000034 -0.000005 2.842733 0.143011 -9.116257 -1.787507 -0.000011 -0.000058 2.639740 -0.000000 0.000002 -0.000000 0.000003 0.000003 -0.000004 -0.000000 0.000000 0.000000 -0.000014 0.000003 0.000010 -0.000000 -0.000001 -0.000000 2.625397 -0.000023 11.175218 -14.329117 69.075370 -0.203422 0.000021 -0.000065 10.813635 95.897003 54.145140 71.418172 0.000051 -0.000031 28.724739 -10.084577 0.329420 70.920723 0.644405 0.328911 25.716164 -76.109413 -19.085075 -17.769751 2.867283 -2.944275 3.959579 -31.586749 17.619221 50.974566 0.000008 -0.000046 3.350426 13.456762 -8.731293 -24.185287 0.000000 -0.000004 3.756569 8.945675 -6.680303 -16.547284 -0.000013 0.000023 3.100012 -0.000003 0.000000 -0.000000 0.086761 -2.345261 10.030909 -5.763251 17.779425 2.563319 -0.000004 -0.000027 4.061087 0.318209 12.110678 -1.727796 0.000020 -0.000010 3.248861 -0.181922 12.110676 -1.727827 0.000002 0.000011 2.639729 -0.000002 0.000003 -0.000001 -0.104096 -0.006802 9.502958 -0.795292 15.823663 1.725307 0.000009 -0.000013 4.568729 0.427784 11.139997 -0.591215 -0.000002 0.000017 3.655001 -0.060358 11.140231 -0.589219 -0.000043 0.000008 2.741229 0.000000 0.000001 0.000001 -0.086754 2.267439 8.921724 7.425495 15.309410 0.193968 0.000002 -0.000020 4.061110 -0.945786 10.841737 0.668300 -0.000008 -0.000026 3.654971 0.058675 10.841692 0.672959 -0.000006 -0.000006 2.741226 0.000001 0.000000 -0.000001 0.173481 4.467218 7.976974 15.780450 14.048888 -1.159284 0.000000 -0.000004 3.350397 -1.846716 9.365838 1.837696 0.000014 0.000001 2.842749 0.132051 9.365866 1.834242 0.000004 -0.000014 2.639691 0.000003 -0.000001 -0.000000 -0.000006 0.000002 -0.000020 -0.000000 0.000001 0.000001 0.000012 0.000002 0.000008 0.000000 -0.000002 -0.000001 -11.289969 -0.000099 0.000027 -7.721612 8.145054 -4.148730 -0.000016 -0.000022 -38.200382 -0.985117 0.765281 37.909633 -0.000025 0.000085 -39.900837 -5.918158 -11.590812 13.191471 -0.000005 -15.261634 -0.000007 2.795777 0.451714 -18.101711 -0.000007 -7.370663 -0.000002 -0.000001 0.000000 0.000001 -0.000014 0.000063 0.000001 -0.000000 0.000001 0.000003 -0.000009 -0.000071 0.000006 0.000001 0.000000 0.000001 11.315704 0.000032 0.000004 4.351793 -5.490847 -8.711896 0.000003 0.000012 -38.200325 -0.414654 0.541743 52.568244 0.000001 0.000027 -39.900848 18.541293 -0.203115 -4.185522 0.000011 -15.261581 -0.000025 -0.608715 0.264544 -17.022455 -0.000009 -7.539914 0.000000 -0.000001 -0.000000 0.000000 0.000013 0.000058 0.000001 0.000001 0.000000 -0.000002 0.000002 0.000001 -0.000007 -0.000000 0.000000 0.000001 
10.020813 -2.368774 81.855835 -2.221933 7.182148 -15.848096 -0.000002 2.080088 8.814260 0.610897 -0.544638 18.111162 0.000011 -0.000011 8.844144 0.069995 0.848705 11.414350 0.000002 0.000008 11.682281 3.218049 1.328286 13.500490 0.000011 0.000008 11.746706 1.316548 0.760806 8.184862 0.000007 -0.000036 17.658249 -2.836156 -2.873895 -2.748296 0.000004 -0.000015 5.101519 -3.591541 0.131037 -6.859497 -0.000010 0.000015 5.101483 -0.358389 -0.095100 -11.618165 -0.000007 0.000001 11.655091 0.000000 -0.000000 -0.000000 -2.625404 -0.000107 11.175220 20.902933 -76.307502 1.451721 -0.000023 0.000031 10.434738 -60.121080 -40.686556 78.366134 -0.000008 -0.000015 29.628443 17.297299 0.848727 36.264657 0.000006 -0.000080 22.857626 -13.027479 4.173762 -5.950587 -2.867306 -2.944275 3.959656 31.570336 -17.795556 50.709042 0.000000 -0.000038 3.350407 -13.848233 8.875894 -24.835019 0.000000 0.000015 3.756512 -9.200056 6.815928 -16.986812 0.000007 -0.000010 3.147342 0.000000 0.000000 -0.000001 -0.086746 -2.345260 10.030922 -12.459146 -18.537306 5.114488 -0.000004 -0.000032 4.061108 0.290692 -13.437139 1.920192 0.000009 -0.000025 3.248863 -0.210341 -13.437149 1.920435 -0.000029 0.000001 2.639707 0.000000 0.000002 -0.000000 0.104069 -0.006838 9.502977 -6.742495 -16.880331 2.067779 -0.000030 -0.000072 4.568735 0.433883 -12.054082 0.615845 -0.000018 -0.000046 3.654982 -0.073548 -12.054100 0.626505 -0.000029 -0.000059 2.741250 -0.000000 -0.000000 0.000001 0.086775 2.267481 8.921725 1.835992 -15.683950 -0.646912 0.000010 -0.000087 4.061102 -0.929504 -11.132803 -0.690258 0.000006 -0.000027 3.654964 0.070746 -11.132847 -0.690572 0.000009 -0.000002 2.741227 0.000000 -0.000000 -0.000000 -0.173492 4.467085 7.977013 10.945919 -12.856676 -3.579068 -0.000021 0.000013 3.350397 -1.857304 -9.299522 -1.823091 -0.000014 -0.000018 2.842735 0.143197 -9.299579 -1.823183 0.000005 -0.000065 2.639736 0.000000 0.000001 -0.000001 0.000002 0.000017 0.000009 -0.000003 0.000001 -0.000000 0.000015 0.000004 0.000011 -0.000001 0.000000 0.000000 2.625397 -0.000095 11.175200 -14.366161 69.061573 -0.202955 -0.000017 -0.000084 10.813631 95.824515 54.138258 71.264213 0.000074 -0.000008 28.724796 -9.937375 0.333018 70.911243 0.644512 0.328888 25.716141 -76.199469 -19.018810 -17.745981 2.867294 -2.944260 3.959549 -31.586736 17.619216 50.974576 0.000000 -0.000046 3.350414 13.456762 -8.731301 -24.185273 0.000008 0.000031 3.756550 8.945672 -6.680297 -16.547298 -0.000003 0.000003 3.099991 0.000000 -0.000001 -0.000001 0.086754 -2.345297 10.030903 -5.779309 17.665379 2.544067 -0.000010 -0.000014 4.061111 0.318216 12.033509 -1.716935 0.000005 0.000007 3.248894 -0.181598 12.033583 -1.716972 -0.000007 0.000006 2.639700 -0.000001 0.000002 0.000001 -0.104097 -0.006798 9.502962 -0.812247 15.724984 1.720980 -0.000006 0.000020 4.568739 0.427691 11.070258 -0.587406 0.000008 0.000030 3.654980 -0.060239 11.070266 -0.588640 -0.000001 -0.000004 2.741226 0.000001 0.000002 -0.000003 -0.086758 2.267452 8.921732 7.408570 15.227608 0.211780 -0.000014 -0.000018 4.061108 -0.945680 10.785020 0.666617 0.000008 -0.000027 3.654974 0.058502 10.785049 0.672210 0.000009 -0.000004 2.741246 0.000000 0.000001 0.000000 0.173462 4.467203 7.977002 15.769788 13.978139 -1.102106 0.000017 0.000010 3.350418 -1.847118 9.326788 1.833060 0.000007 0.000013 2.842766 0.131847 9.326759 1.828899 -0.000010 0.000004 2.639707 -0.000001 0.000001 -0.000001 -0.000004 -0.000001 -0.000001 0.000000 0.000000 0.000000 0.000024 -0.000004 0.000022 -0.000001 0.000003 0.000001 -11.289946 -0.000043 0.000015 -7.482483 8.181274 -4.315430 -0.000001 -0.000049 -38.200382 -0.985492 0.770371 38.094694 0.000018 0.000020 -39.900841 -5.934088 -11.648765 13.293286 0.000013 -15.261633 0.000000 2.773810 0.459966 -18.205294 0.000003 -7.370665 -0.000001 -0.000000 0.000000 -0.000000 -0.000014 0.000012 -0.000003 -0.000002 0.000001 -0.000000 -0.000017 -0.000052 0.000002 -0.000001 0.000001 0.000000 11.315686 -0.000053 -0.000011 4.476780 -5.417421 -8.666606 0.000013 0.000009 -38.200302 -0.419704 0.544399 52.510795 -0.000009 0.000038 -39.900860 18.641328 -0.204528 -4.183060 -0.000006 -15.261629 -0.000008 -0.612984 0.280238 -17.025650 -0.000006 -7.539912 0.000000 -0.000001 0.000000 -0.000000 0.000004 -0.000006 0.000002 0.000001 0.000001 0.000000 -0.000000 -0.000002 -0.000011 0.000000 -0.000000 0.000003 
